<svg xmlns="http://www.w3.org/2000/svg" xmlns:xlink="http://www.w3.org/1999/xlink" width="300" zoomAndPan="magnify" viewBox="0 0 224.87999 83.249999" height="111" preserveAspectRatio="xMidYMid meet" version="1.0"><defs><g/><clipPath id="7bcf223a29"><path d="M 0.945312 0 L 223.816406 0 L 223.816406 82.507812 L 0.945312 82.507812 Z M 0.945312 0 " clip-rule="nonzero"/></clipPath><clipPath id="67d99b5f20"><path d="M 0.945312 0 L 82.304688 0 L 82.304688 81.363281 L 0.945312 81.363281 Z M 0.945312 0 " clip-rule="nonzero"/></clipPath></defs><g clip-path="url(#7bcf223a29)"><path fill="#ffffff" d="M 0.945312 0 L 223.933594 0 L 223.933594 82.507812 L 0.945312 82.507812 Z M 0.945312 0 " fill-opacity="1" fill-rule="nonzero"/><path fill="#eeeeee" d="M 0.945312 0 L 223.933594 0 L 223.933594 82.507812 L 0.945312 82.507812 Z M 0.945312 0 " fill-opacity="1" fill-rule="nonzero"/></g><g clip-path="url(#67d99b5f20)"><path fill="#3a3a3a" d="M 41.679688 81.472656 C 19.175781 81.472656 0.945312 63.117188 0.945312 40.738281 C 0.945312 18.355469 19.175781 0 41.679688 0 C 64.1875 0 82.417969 18.230469 82.417969 40.738281 C 82.417969 63.242188 64.0625 81.472656 41.679688 81.472656 Z M 41.679688 2.515625 C 20.558594 2.515625 3.460938 19.613281 3.460938 40.738281 C 3.460938 61.859375 20.558594 78.957031 41.679688 78.957031 C 62.804688 78.957031 79.902344 61.859375 79.902344 40.738281 C 79.902344 19.613281 62.679688 2.515625 41.679688 2.515625 Z M 41.679688 2.515625 " fill-opacity="1" fill-rule="nonzero"/></g><g fill="#3a3a3a" fill-opacity="1"><g transform="translate(3.907545, 63.382289)"><g><path d="M 29.375 -15.734375 C 29.125 -15.75 28.5 -15.71875 28.484375 -15.28125 C 28.46875 -15.046875 28.78125 -14.90625 29.875 -14.859375 C 30.609375 -14.8125 33.796875 -14.890625 35.765625 -14.890625 C 32.953125 -10.40625 24.3125 0.34375 18.375 0.015625 C 17.703125 -0.015625 15.703125 -0.359375 15.765625 -1.40625 C 15.828125 -2.453125 18.375 -1.75 18.484375 -3.84375 C 18.53125 -4.796875 17.640625 -5.34375 16.78125 -5.390625 C 15.140625 -5.484375 13.65625 -4.046875 13.5625 -2.390625 C 13.4375 -0.125 15.46875 0.84375 17.421875 0.953125 C 21.828125 1.1875 25.921875 -0.796875 29.546875 -3.109375 C 34.625 -6.375 37.46875 -10.28125 41.03125 -14.984375 L 48.09375 -15.015625 C 49.4375 -15 49.765625 -15.171875 49.765625 -15.421875 C 49.78125 -15.65625 49.546875 -15.796875 49.359375 -15.8125 C 48.375 -15.859375 44.21875 -15.90625 41.703125 -15.921875 C 43.25 -18.109375 44.71875 -20.359375 46.1875 -22.609375 C 49.78125 -28.296875 52.25 -32.65625 57.328125 -37.078125 C 59.15625 -36.78125 60.96875 -36.578125 62.8125 -36.484375 C 65.25 -36.34375 70.515625 -36.296875 70.6875 -39.296875 C 70.78125 -40.953125 68.9375 -41.65625 67.59375 -41.734375 C 64.28125 -41.921875 61.53125 -41.140625 58.6875 -39.59375 C 53.078125 -41.296875 47.34375 -42.609375 41.46875 -42.921875 C 39.375 -43.046875 37.234375 -43.03125 35.15625 -42.953125 C 32.21875 -45.4375 30.421875 -46.15625 26.515625 -46.359375 C 20.265625 -46.703125 14.1875 -44.296875 9.3125 -40.5 C 5.234375 -37.296875 1.625 -30.75 1.328125 -25.5 C 1.28125 -24.453125 1.609375 -18.359375 3.015625 -18.28125 C 3.265625 -18.265625 3.28125 -18.453125 3.296875 -18.640625 C 3.3125 -18.9375 3.140625 -19.265625 3.03125 -19.578125 C 2.390625 -21.265625 2.234375 -23.921875 2.328125 -25.6875 C 2.953125 -37.171875 15.28125 -46.109375 26.28125 -45.515625 C 29.515625 -45.34375 31.375 -44.703125 33.921875 -42.78125 C 28.546875 -42.265625 23.375 -40.59375 18.640625 -38.09375 C 13.28125 -35.328125 7.140625 -28.65625 6.796875 -22.375 C 6.5625 -18.078125 9.515625 -14.9375 13.75 -14.703125 C 19.484375 -14.390625 24.09375 -16.828125 28.34375 -20.46875 C 32.453125 -23.984375 37.203125 -30.03125 37.515625 -35.65625 C 37.59375 -37.296875 37.484375 -38.21875 36.953125 -39.796875 C 37.859375 -39.859375 38.828125 -39.8125 39.75 -39.765625 C 44.953125 -39.484375 50.28125 -38.265625 55.390625 -37.3125 C 47.140625 -31.265625 42.34375 -24.171875 36.4375 -15.96875 Z M 69.59375 -39.46875 C 69.515625 -38.125 67.8125 -38.03125 66.828125 -38.09375 C 64.6875 -38.203125 62.625 -38.703125 60.578125 -39.234375 C 62.96875 -40.453125 65.03125 -41.015625 67.78125 -40.859375 C 68.578125 -40.8125 69.65625 -40.453125 69.59375 -39.46875 Z M 36.484375 -35.75 C 36.171875 -30.015625 32.796875 -25.65625 28.65625 -21.984375 C 24.671875 -18.328125 19.953125 -15.328125 14.34375 -15.640625 C 10.296875 -15.859375 7.421875 -18.109375 7.65625 -22.390625 C 8 -28.6875 14.140625 -34.109375 19.359375 -36.75 C 24.53125 -39.375 29.96875 -40.046875 35.71875 -39.859375 C 36.5625 -38.40625 36.578125 -37.40625 36.484375 -35.75 Z M 36.484375 -35.75 "/></g></g></g><path stroke-linecap="round" transform="matrix(0.593884, 0, 0, 0.593884, 31.545981, 46.569063)" fill="none" stroke-linejoin="miter" d="M 1.501167 1.501765 L 314.496288 1.501765 " stroke="#3a3a3a" stroke-width="3" stroke-opacity="1" stroke-miterlimit="4"/><g fill="#3a3a3a" fill-opacity="1"><g transform="translate(95.438281, 45.831981)"><g><path d="M 57.21875 -31.203125 C 57.21875 -31.6875 56.828125 -32.15625 56.296875 -32.15625 C 55 -32.15625 51.25 -28.71875 50.328125 -27.890625 C 47.546875 -25.3125 45.0625 -22.40625 42.578125 -19.5625 C 38.734375 -15.203125 35.03125 -10.765625 31.296875 -6.3125 C 30.890625 -5.84375 28.1875 -2.578125 27.796875 -2.578125 C 27.546875 -2.578125 27.453125 -2.828125 27.453125 -3.046875 C 27.453125 -3.96875 29.9375 -7.890625 30.421875 -8.625 C 34.421875 -14.765625 38.921875 -20.5625 43.1875 -26.546875 C 43.578125 -27.109375 45.28125 -29.234375 45.28125 -29.984375 C 45.28125 -30.546875 44.796875 -30.984375 44.234375 -30.984375 C 42.796875 -30.984375 39.828125 -28.5 38.875 -27.625 C 34.640625 -23.796875 30.671875 -19.703125 26.671875 -15.640625 C 23.046875 -12.03125 19.390625 -8.1875 14.984375 -5.578125 C 11.46875 -3.484375 6.890625 -1.609375 2.75 -1.609375 C -1.484375 -1.609375 -4.265625 -3.3125 -5.09375 -7.5 C -3.3125 -7.015625 -1.5625 -6.71875 0.3125 -6.71875 C 5.796875 -6.71875 11.859375 -8.84375 16.390625 -11.9375 C 19.4375 -14.03125 22.96875 -18.046875 22.96875 -21.96875 C 22.96875 -25.578125 19.21875 -26.84375 16.171875 -26.84375 C 11.0625 -26.84375 5.234375 -24.015625 1.390625 -20.78125 C -2.78125 -17.25 -4.921875 -13.859375 -5.75 -8.40625 C -8.546875 -9.625 -9.8125 -11.890625 -9.8125 -14.90625 C -9.8125 -19.921875 -5.265625 -24.140625 -0.921875 -25.890625 C 0.921875 -26.625 2.875 -27.015625 4.84375 -27.015625 C 7.0625 -27.015625 8.0625 -26.75 8.40625 -26.75 C 8.546875 -26.75 8.765625 -26.796875 8.765625 -26.96875 C 8.765625 -27.359375 7.40625 -27.625 5.1875 -27.625 C 3.140625 -27.625 1.140625 -27.234375 -0.78125 -26.546875 C -5.53125 -24.796875 -10.453125 -20.53125 -10.453125 -15.078125 C -10.453125 -11.765625 -8.890625 -9.015625 -5.75 -7.75 C -5.75 -2.875 -1.96875 0.09375 2.703125 0.09375 C 8.0625 0.09375 14.640625 -3.578125 18.828125 -6.71875 C 23.53125 -10.234375 30.984375 -19.5625 37.484375 -25.625 C 38.390625 -26.5 42.875 -30.28125 44.0625 -30.28125 C 44.28125 -30.28125 44.53125 -30.15625 44.53125 -29.890625 C 44.53125 -29.203125 41.140625 -25.40625 40.578125 -24.75 C 38.09375 -21.921875 35.640625 -19.09375 33.203125 -16.21875 C 30.9375 -13.46875 24.234375 -5.890625 24.234375 -2.09375 C 24.234375 -1.3125 24.40625 0 25.453125 0 C 27.15625 0 29.890625 -3.609375 30.890625 -4.796875 C 32.375 -6.53125 33.859375 -8.359375 35.34375 -10.15625 C 39.53125 -15.25 43.75 -20.390625 48.421875 -25.0625 C 49.5 -26.140625 54.828125 -31.46875 56 -31.46875 C 56.296875 -31.46875 56.484375 -31.25 56.484375 -30.9375 C 56.484375 -29.5 36.5625 -12.328125 36.5625 -2.75 C 36.5625 -1.4375 37.171875 0.046875 38.703125 0.046875 C 40.96875 0.046875 45.671875 -4.1875 47.1875 -5.796875 C 47.375 -6.015625 48.984375 -7.671875 48.984375 -7.9375 C 48.984375 -8.0625 48.9375 -8.15625 48.8125 -8.15625 C 48.453125 -8.15625 42.75 -1.484375 40.21875 -1.484375 C 39.5625 -1.484375 39.484375 -2.140625 39.484375 -2.65625 C 39.484375 -3.96875 41.578125 -8.1875 42.1875 -9.5 C 45.5 -16.46875 50.640625 -22.578125 55.515625 -28.546875 C 56.046875 -29.15625 57.21875 -30.328125 57.21875 -31.203125 Z M 22.3125 -21.75 C 22.3125 -18.21875 18.90625 -14.375 16.171875 -12.5 C 11.9375 -9.671875 5.890625 -7.328125 0.734375 -7.328125 C -1.265625 -7.328125 -3.140625 -7.625 -5.0625 -8.15625 C -4.046875 -13.6875 -2.359375 -16.734375 1.921875 -20.484375 C 5.703125 -23.84375 11.03125 -26.1875 16.125 -26.1875 C 19.046875 -26.1875 22.3125 -25.234375 22.3125 -21.75 Z M 22.3125 -21.75 "/></g></g></g><g fill="#3a3a3a" fill-opacity="1"><g transform="translate(143.853763, 45.831981)"><g><path d="M 8.984375 -9.890625 C 9.015625 -10.015625 9.0625 -10.203125 9.0625 -10.328125 C 9.0625 -11.109375 8.015625 -11.328125 7.40625 -11.328125 C 3.65625 -11.328125 -3.53125 -6.453125 -3.53125 -2.390625 C -3.53125 -0.953125 -2.4375 0 -1.046875 0 C 0.609375 0 2.609375 -2.046875 3.75 -3.09375 C 3.578125 -2.578125 3.359375 -1.921875 3.359375 -1.390625 C 3.359375 -0.4375 4.140625 0 5.015625 0 C 7.578125 0 11.9375 -3.96875 13.6875 -5.671875 C 13.984375 -5.921875 15.59375 -7.359375 15.59375 -7.71875 C 15.59375 -7.84375 15.5625 -7.9375 15.421875 -7.9375 C 15.203125 -7.9375 7.96875 -0.734375 5.75 -0.734375 C 5.453125 -0.734375 5.0625 -0.921875 5.0625 -1.3125 C 5.0625 -1.828125 6.40625 -3.609375 6.75 -4.046875 L 12.421875 -11.203125 L 9.9375 -11.0625 Z M 8.1875 -9.84375 C 8.1875 -7.890625 0.828125 -0.515625 -1.046875 -0.515625 C -1.484375 -0.515625 -1.875 -1 -1.875 -1.4375 C -1.875 -3.046875 1.34375 -6.40625 2.390625 -7.453125 C 3.484375 -8.546875 5.625 -10.71875 7.328125 -10.71875 C 7.796875 -10.71875 8.1875 -10.328125 8.1875 -9.84375 Z M 8.1875 -9.84375 "/></g></g></g><g fill="#3a3a3a" fill-opacity="1"><g transform="translate(159.193326, 45.831981)"><g><path d="M -0.265625 -7.890625 C -1.53125 -6.40625 -3.75 -3.96875 -3.75 -1.875 C -3.75 -0.65625 -2.921875 0 -1.75 0 C 1.09375 0 5.796875 -4.875 7.625 -6.75 C 7.796875 -6.921875 8.453125 -7.625 8.453125 -7.796875 C 8.453125 -7.9375 8.328125 -7.96875 8.234375 -7.96875 C 7.96875 -7.96875 7.328125 -7.140625 7.140625 -6.96875 C 5.890625 -5.75 0.65625 -0.703125 -1.265625 -0.703125 C -1.75 -0.703125 -2.171875 -1.046875 -2.171875 -1.5625 C -2.171875 -2.703125 -0.921875 -4.015625 -0.265625 -4.84375 L 7.5 -14.25 L 10.234375 -14.25 L 10.671875 -14.984375 L 8.015625 -14.984375 L 12.6875 -20.5625 L 10.234375 -20.21875 L 5.84375 -14.984375 L 3.3125 -14.984375 L 2.828125 -14.25 L 5.234375 -14.25 Z M -0.265625 -7.890625 "/></g></g></g><g fill="#3a3a3a" fill-opacity="1"><g transform="translate(167.255308, 45.831981)"><g><path d="M -0.265625 -7.890625 C -1.53125 -6.40625 -3.75 -3.96875 -3.75 -1.875 C -3.75 -0.65625 -2.921875 0 -1.75 0 C 1.09375 0 5.796875 -4.875 7.625 -6.75 C 7.796875 -6.921875 8.453125 -7.625 8.453125 -7.796875 C 8.453125 -7.9375 8.328125 -7.96875 8.234375 -7.96875 C 7.96875 -7.96875 7.328125 -7.140625 7.140625 -6.96875 C 5.890625 -5.75 0.65625 -0.703125 -1.265625 -0.703125 C -1.75 -0.703125 -2.171875 -1.046875 -2.171875 -1.5625 C -2.171875 -2.703125 -0.921875 -4.015625 -0.265625 -4.84375 L 7.5 -14.25 L 10.234375 -14.25 L 10.671875 -14.984375 L 8.015625 -14.984375 L 12.6875 -20.5625 L 10.234375 -20.21875 L 5.84375 -14.984375 L 3.3125 -14.984375 L 2.828125 -14.25 L 5.234375 -14.25 Z M -0.265625 -7.890625 "/></g></g></g><g fill="#3a3a3a" fill-opacity="1"><g transform="translate(175.317289, 45.831981)"><g><path d="M 7.453125 -14.8125 C 7.453125 -15.296875 7.0625 -15.6875 6.578125 -15.6875 C 5.84375 -15.6875 5.140625 -15.03125 5.140625 -14.296875 C 5.140625 -13.8125 5.53125 -13.421875 6.015625 -13.421875 C 6.75 -13.421875 7.453125 -14.078125 7.453125 -14.8125 Z M 1.140625 -9.453125 C -0.046875 -7.96875 -3.796875 -3.75 -3.796875 -1.78125 C -3.796875 -0.734375 -2.875 0 -1.875 0 C 0.484375 0 5.921875 -5.234375 7.5 -6.71875 C 7.71875 -6.921875 8.359375 -7.40625 8.359375 -7.71875 C 8.359375 -7.796875 8.328125 -7.9375 8.1875 -7.9375 C 8.015625 -7.9375 0.4375 -0.703125 -1.65625 -0.703125 C -2.046875 -0.703125 -2.265625 -0.921875 -2.265625 -1.3125 C -2.265625 -2.359375 0.390625 -5.53125 1.046875 -6.3125 L 5.234375 -11.5 L 2.578125 -11.25 Z M 1.140625 -9.453125 "/></g></g></g><g fill="#3a3a3a" fill-opacity="1"><g transform="translate(183.37927, 45.831981)"><g><path d="M 15.03125 -7.96875 C 15.03125 -8.0625 14.953125 -8.15625 14.859375 -8.15625 C 14.5625 -8.15625 13.375 -6.28125 11.28125 -6.28125 C 10.8125 -6.28125 10.421875 -6.359375 9.984375 -6.578125 C 10.9375 -7.625 11.984375 -8.84375 11.984375 -10.375 C 11.984375 -10.984375 11.59375 -11.546875 10.9375 -11.546875 C 9.453125 -11.546875 8.5 -9.40625 8.5 -8.15625 C 8.5 -7.578125 8.796875 -6.890625 9.109375 -6.453125 C 8.015625 -5.09375 3.875 -0.78125 2.171875 -0.78125 C 1.75 -0.78125 1.484375 -1.171875 1.484375 -1.5625 C 1.484375 -3.359375 7.015625 -7.359375 7.015625 -10.15625 C 7.015625 -11.203125 6.28125 -11.71875 5.265625 -11.71875 C 3.53125 -11.71875 1.53125 -9.453125 0.390625 -8.328125 C 0.265625 -8.1875 -0.390625 -7.53125 -0.390625 -7.359375 C -0.390625 -7.28125 -0.3125 -7.1875 -0.21875 -7.1875 C 0.3125 -7.1875 3.359375 -10.9375 4.625 -10.9375 C 5.0625 -10.9375 5.234375 -10.640625 5.234375 -10.234375 C 5.234375 -8.109375 -0.171875 -4.75 -0.171875 -1.65625 C -0.171875 -0.734375 0.4375 0.046875 1.390625 0.046875 C 4.09375 0.046875 8.015625 -4.1875 9.59375 -6.09375 C 10.15625 -5.890625 10.640625 -5.75 11.25 -5.75 C 12.25 -5.75 13.25 -6.140625 13.984375 -6.796875 C 14.203125 -6.96875 15.03125 -7.625 15.03125 -7.96875 Z M 11.421875 -10.234375 C 11.421875 -9.015625 10.28125 -7.71875 9.5 -6.890625 C 9.1875 -7.28125 9.0625 -7.671875 9.0625 -8.15625 C 9.0625 -8.984375 9.765625 -10.9375 10.8125 -10.9375 C 11.203125 -10.9375 11.421875 -10.59375 11.421875 -10.234375 Z M 11.421875 -10.234375 "/></g></g></g><g fill="#3a3a3a" fill-opacity="1"><g transform="translate(197.890841, 45.831981)"><g><path d="M 7.453125 -14.8125 C 7.453125 -15.296875 7.0625 -15.6875 6.578125 -15.6875 C 5.84375 -15.6875 5.140625 -15.03125 5.140625 -14.296875 C 5.140625 -13.8125 5.53125 -13.421875 6.015625 -13.421875 C 6.75 -13.421875 7.453125 -14.078125 7.453125 -14.8125 Z M 1.140625 -9.453125 C -0.046875 -7.96875 -3.796875 -3.75 -3.796875 -1.78125 C -3.796875 -0.734375 -2.875 0 -1.875 0 C 0.484375 0 5.921875 -5.234375 7.5 -6.71875 C 7.71875 -6.921875 8.359375 -7.40625 8.359375 -7.71875 C 8.359375 -7.796875 8.328125 -7.9375 8.1875 -7.9375 C 8.015625 -7.9375 0.4375 -0.703125 -1.65625 -0.703125 C -2.046875 -0.703125 -2.265625 -0.921875 -2.265625 -1.3125 C -2.265625 -2.359375 0.390625 -5.53125 1.046875 -6.3125 L 5.234375 -11.5 L 2.578125 -11.25 Z M 1.140625 -9.453125 "/></g></g></g></svg>